<svg xmlns="http://www.w3.org/2000/svg" width="50.262" height="50.262" viewBox="0 0 50.262 50.262">
  <defs>
    <style>
      .cls-1 {
        fill: #fff;
      }
    </style>
  </defs>
  <g id="Group_117" data-name="Group 117" transform="translate(-600 -2847)">
    <path id="alto-valor" class="cls-1" d="M49.641,23.7A4.839,4.839,0,0,0,46.4,24.947V18.024a2.435,2.435,0,0,0-2.432-2.432,2.408,2.408,0,0,0-.906.179A2.437,2.437,0,0,0,41.929,14.3a11.224,11.224,0,0,0-1.3-8.989A9.126,9.126,0,0,0,32.841,1a9.248,9.248,0,0,0-6.494,2.691l-.216.216-.216-.216A9.247,9.247,0,0,0,19.421,1a9.129,9.129,0,0,0-7.786,4.315,11.23,11.23,0,0,0-1.3,8.989A2.435,2.435,0,0,0,9.2,15.771a2.425,2.425,0,0,0-3.338,2.254v6.923A4.839,4.839,0,0,0,2.621,23.7,1.623,1.623,0,0,0,1,25.32l0,.089c0,.05.553,5.011.742,9.407a9.007,9.007,0,0,0,2.059,5.352l2.058,2.469v8.624H18.835V42.533a16.252,16.252,0,0,0,1.621-7.057V25.116l5.675,4.48,5.675-4.48v10.36a16.252,16.252,0,0,0,1.621,7.057v8.729H46.4V42.638l2.059-2.471a9.009,9.009,0,0,0,2.058-5.351c.189-4.4.737-9.357.742-9.407l0-.088A1.623,1.623,0,0,0,49.641,23.7ZM13.01,6.175a7.516,7.516,0,0,1,6.411-3.554,7.615,7.615,0,0,1,5.347,2.216L26.131,6.2l1.363-1.363a7.615,7.615,0,0,1,5.347-2.216,7.516,7.516,0,0,1,6.411,3.554,9.7,9.7,0,0,1-2.21,12.741L33.892,21.4l-.091-.092a5.718,5.718,0,0,0-4.017-1.665h-.638l-.34-1.02a4.006,4.006,0,0,0,1.05-1.412h.434a2.384,2.384,0,0,0,2.326-2.432,2.494,2.494,0,0,0-.376-1.318l.349-1.3a3.349,3.349,0,0,0-2.1-3.959L27.049,6.956a4.674,4.674,0,0,0-5.337,1.589l-.2.259a2.382,2.382,0,0,0-1.942,2.338,8.764,8.764,0,0,0,.435,2.348,2.486,2.486,0,0,0-.363,1.291,2.383,2.383,0,0,0,2.325,2.432H22.4a4.006,4.006,0,0,0,1.05,1.412l-.34,1.02h-.638a5.716,5.716,0,0,0-4.017,1.667l-.091.091-3.149-2.486A9.7,9.7,0,0,1,13.01,6.175Zm8.96,9.417a.819.819,0,0,1,0-1.621h.115c0,.041-.008.083-.008.124v1.5Zm.531-3.243h-.531a2.214,2.214,0,0,0-.576.084,5.75,5.75,0,0,1-.2-1.292.757.757,0,0,1,.756-.756h.405l.652-.869a3.113,3.113,0,0,1,3.485-1.037l3.436,1.249a1.733,1.733,0,0,1,1.137,1.624,1.7,1.7,0,0,1-.048.405l-.179.667a2.235,2.235,0,0,0-.549-.075h-.918a11.686,11.686,0,0,1-4.687-1.511l-.434-.252-.419.275A3.878,3.878,0,0,0,22.5,12.349Zm7.683,1.621h.107a.819.819,0,0,1,0,1.621h-.107Zm-6.485.124a2.231,2.231,0,0,1,.666-1.588,13.611,13.611,0,0,0,4.2,1.411v1.725a2.433,2.433,0,0,1-4.864,0Zm1.195,5.34a3.736,3.736,0,0,0,2.474,0l.276.83-1.514,1.681-1.514-1.681ZM7.485,49.641V46.4h9.728v3.243ZM18.835,35.476A14.614,14.614,0,0,1,17.3,41.981l-.085.172v2.623H7.485V42.051L5.052,39.13a7.378,7.378,0,0,1-1.685-4.383c-.178-4.125-.666-8.731-.741-9.427a3.247,3.247,0,0,1,3.238,3.243v4.459L7.38,34.158a7.359,7.359,0,0,1,2.579,3.578l1.538-.513a8.978,8.978,0,0,0-3.144-4.362l-.867-.65V18.024a.811.811,0,0,1,1.621,0V29.374h1.621V16.4a.792.792,0,0,1,.175-.486,11.146,11.146,0,0,0,1.446,2.406v11.05h1.621v-9.4c.083.071.158.148.245.216l1.377,1.087v8.1h1.621V22.556l1.621,1.28Zm.821-13.058a4.078,4.078,0,0,1,2.821-1.151h.861l2.793,3.1,2.793-3.1h.861a4.078,4.078,0,0,1,2.821,1.151L26.131,27.53ZM35.048,49.641V46.4h9.728v3.243ZM48.9,34.747a7.38,7.38,0,0,1-1.684,4.383l-2.435,2.922v2.725H35.048V42.153l-.085-.171a14.617,14.617,0,0,1-1.536-6.506V23.836l1.621-1.28v6.818H36.67v-8.1l1.377-1.087c.086-.068.161-.147.245-.216v9.4h1.621V18.323a11.2,11.2,0,0,0,1.445-2.407.786.786,0,0,1,.176.486V29.374h1.621V18.024a.811.811,0,1,1,1.621,0V32.211l-.867.651a8.974,8.974,0,0,0-3.144,4.362l1.538.513a7.362,7.362,0,0,1,2.579-3.578L46.4,33.022V28.563a3.247,3.247,0,0,1,3.238-3.243c-.075.7-.563,5.3-.74,9.427Z" transform="translate(599 2846)"/>
  </g>
</svg>
