<svg xmlns="http://www.w3.org/2000/svg" width="22.188" height="66.471" viewBox="0 0 22.188 66.471">
  <defs>
    <style>
      .cls-1 {
        fill: none;
        stroke-linecap: square;
        stroke-linejoin: bevel;
      }

      .cls-2, .cls-3 {
        stroke: none;
      }

      .cls-3 {
        fill: #fff;
      }
    </style>
  </defs>
  <g id="Group_55" data-name="Group 55" transform="translate(1 71.114)">
    <g id="Path_426" data-name="Path 426" class="cls-1" transform="translate(0)">
      <path class="cls-2" d="M19.435-68.391s.816-.839.748-1.141-1.824.686-3,1.288-2.049.838-2.366,1.617-1.205,2.86-1.205,2.86-.36-.182-.387-.483a.718.718,0,0,0-.874-.573c-.483.126-.454.668-.689.785s-.694.629-.477,1.084a4.188,4.188,0,0,0,.446.957.652.652,0,0,1-.093.747c-.18.152-.354.12-.655-.025a5.181,5.181,0,0,1-.935-.575,4.55,4.55,0,0,1-.508-1.679,1.146,1.146,0,0,1,.173-.509s1.021-.118,1.14-.3A.926.926,0,0,0,10.9-65c-.064-.126-.119-.212-.383-.212a5.716,5.716,0,0,0-1.242.12c-.231.093-1.1.148-1.224.238s-.123.429-.032.635.06.336.27.336a.973.973,0,0,1,.385.086l-.025.931a17,17,0,0,0-2.764-3.367c-1.6-1.441-5.559-3.99-5.8-3.877s.064,1.2.064,1.2-.3.329-.064,1.082,1.625,1.473,1.625,1.473a2.227,2.227,0,0,0,.477,1.115,6.649,6.649,0,0,0,1.32.837s.246,1.144.748,1.408a8.267,8.267,0,0,0,1.2.483s0,.87.455,1.076a3.045,3.045,0,0,0,1.164.184s-.593.957-.172,1.354a1.518,1.518,0,0,0,.954.4s-.086.774.277.9a.628.628,0,0,0,.6-.126s-.123.779.27.963S9.736-58,9.736-58s.058.568.474.535a.892.892,0,0,0,.574-.183s.508.547.36.874-.7,1.179-.7,1.179-.684.027-.657.568.418.634.479.837-.123,1.024-.387,1.15-.809.448-.837.68-.845.485-.812.851.779.839.873,1.261a1.087,1.087,0,0,0,.806.892.882.882,0,0,1,.606,1.089,1.412,1.412,0,0,0,.931,1.435c.531.093.594.726.361,1.114-.249.387-1,.63-1.119,1.113a1.351,1.351,0,0,0,.122.9,1.917,1.917,0,0,0-.837.931.7.7,0,0,0,.084.668l-.6.639-.31.6a.879.879,0,0,0-.207.308.721.721,0,0,0-.025.184l-.27.529v.383l-.148.055v1.018h.148v3.041l-1.823.513v5.567l1.52,2.423V-5.642h9.4V-26.851l1.516-2.423V-34.84l-1.81-.508v-3.042h.233v-.995l-.239-.095v-.37l-.013-.027a.98.98,0,0,0-.142-.615,1.471,1.471,0,0,0-.326-.323l-.334-.659-.3-.316-.025-.144L16.13-42l-.3-.316v-.316a2.7,2.7,0,0,1-.337-.038L14.315-43.9h-.057a1.75,1.75,0,0,1-.373-.737c.025-.337.356-.423.356-.693a5.692,5.692,0,0,1,.248-2.094,2.828,2.828,0,0,0,.535-1.392c-.031-.292-.031-.748-.031-.748s.837.6.963.963.152,1.5.36,1.5.6-.654.569-1.14-.594-1.076-.418-1.2a2.343,2.343,0,0,0,1.47-1.921c.021-1.295-.96-1.8-1.743-2.343s-1.138-.9-1.054-1.35-.62-1.233-.777-1.617a11.435,11.435,0,0,1-.268-1.624s.994,1.322,1.2,1.288,2.306.243,2.306.243.334.812.519.812.327-.423.356-.66.271-.748.088-.931-.364-.36-.654-.274c-.312.1-.312.455-.457.455a10.981,10.981,0,0,1-1.923-.606,18.878,18.878,0,0,1-.988-1.823.82.82,0,0,0,.337-.58c0-.323-.06-1.439-.06-1.439s.683-.447.739-.69a1.737,1.737,0,0,0,.063-.388s.6-.184.665-.51.082-.906.418-.963a1.135,1.135,0,0,0,.874-.6,1.282,1.282,0,0,0,.079-.786,1.49,1.49,0,0,0,.538-.683c.085-.359.123-.574.123-.574s1.3-.508,1.356-.843A.585.585,0,0,0,19.435-68.391Z"/>
      <path class="cls-3" d="M 0.1120109558105469 -70.11396789550781 C 0.1034278869628906 -70.11396789550781 0.09656333923339844 -70.11276245117188 0.09139633178710938 -70.11032104492188 C -0.1467533111572266 -69.98434448242188 0.1557674407958984 -68.90850067138672 0.1557674407958984 -68.90850067138672 C 0.1557674407958984 -68.90850067138672 -0.1467533111572266 -68.57931518554688 0.09139633178710938 -67.82622528076172 C 0.3267974853515625 -67.07865142822266 1.716196060180664 -66.35314178466797 1.716196060180664 -66.35314178466797 C 1.716196060180664 -66.35314178466797 1.806316375732422 -65.62763214111328 2.193437576293945 -65.23775482177734 C 2.5823974609375 -64.85523223876953 3.513875961303711 -64.40098571777344 3.513875961303711 -64.40098571777344 C 3.513875961303711 -64.40098571777344 3.75938606262207 -63.25710296630859 4.262367248535156 -62.99319458007812 C 4.773626327514648 -62.72285461425781 5.463266372680664 -62.51044464111328 5.463266372680664 -62.51044464111328 C 5.463266372680664 -62.51044464111328 5.463266372680664 -61.64057159423828 5.918426513671875 -61.43460083007812 C 6.274377822875977 -61.26713943481445 6.792670249938965 -61.24941635131836 6.99606990814209 -61.24941635131836 C 7.050663948059082 -61.24941635131836 7.082547187805176 -61.25069427490234 7.082547187805176 -61.25069427490234 C 7.082547187805176 -61.25069427490234 6.489457130432129 -60.29346466064453 6.91059684753418 -59.89715194702148 C 7.328987121582031 -59.50083160400391 7.864147186279297 -59.50083160400391 7.864147186279297 -59.50083160400391 C 7.864147186279297 -59.50083160400391 7.777707099914551 -58.72660064697266 8.140926361083984 -58.60062408447266 C 8.209282875061035 -58.57923889160156 8.273502349853516 -58.57058715820312 8.332669258117676 -58.57058715820312 C 8.583904266357422 -58.57058715820312 8.744136810302734 -58.72660064697266 8.744136810302734 -58.72660064697266 C 8.744136810302734 -58.72660064697266 8.620916366577148 -57.94776153564453 9.014476776123047 -57.76385498046875 C 9.083588600158691 -57.73102188110352 9.15107250213623 -57.71752548217773 9.215236663818359 -57.71752548217773 C 9.510478973388672 -57.71752548217773 9.736296653747559 -58.0029296875 9.736296653747559 -58.0029296875 C 9.736296653747559 -58.0029296875 9.791016578674316 -57.46636962890625 10.17626762390137 -57.46636962890625 C 10.18749618530273 -57.46636962890625 10.1989803314209 -57.46682739257812 10.21077632904053 -57.4677619934082 C 10.63191699981689 -57.49259185791016 10.78455638885498 -57.65075302124023 10.78455638885498 -57.65075302124023 C 10.78455638885498 -57.65075302124023 11.29305648803711 -57.10363006591797 11.14501667022705 -56.77720260620117 C 10.99420642852783 -56.4425048828125 10.44984722137451 -55.59837341308594 10.44984722137451 -55.59837341308594 C 10.44984722137451 -55.59837341308594 9.765727043151855 -55.57170104980469 9.792387008666992 -55.03010177612305 C 9.826416969299316 -54.48942184448242 10.21077632904053 -54.39655303955078 10.2714672088623 -54.19333267211914 C 10.33214664459229 -53.98093414306641 10.14824676513672 -53.16899108886719 9.884346961975098 -53.04301452636719 C 9.610326766967773 -52.92991256713867 9.075157165527344 -52.59519958496094 9.047576904296875 -52.36347961425781 C 9.014476776123047 -52.11797332763672 8.202527046203613 -51.87889099121094 8.235636711120605 -51.51292419433594 C 8.266897201538086 -51.15523147583008 9.014476776123047 -50.67431259155273 9.108266830444336 -50.25225067138672 C 9.195616722106934 -49.83663177490234 9.442966461181641 -49.47985076904297 9.913766860961914 -49.36031341552734 C 10.39651679992676 -49.23434448242188 10.60984706878662 -48.78009033203125 10.51973724365234 -48.27160263061523 C 10.42502689361572 -47.76126098632812 10.90225696563721 -46.9235725402832 11.45121669769287 -46.83621978759766 C 11.98269653320312 -46.74335479736328 12.04522705078125 -46.11071014404297 11.81258678436279 -45.72267150878906 C 11.56339645385742 -45.33555221557617 10.81581687927246 -45.09280395507812 10.69352722167969 -44.61004257202148 C 10.57858657836914 -44.12729263305664 10.81581687927246 -43.71167373657227 10.81581687927246 -43.71167373657227 C 10.81581687927246 -43.71167373657227 10.15192699432373 -43.34938049316406 9.979056358337402 -42.78019332885742 C 9.875146865844727 -42.47031402587891 9.961586952209473 -42.25146102905273 10.0627269744873 -42.11262130737305 L 9.466876983642578 -41.47355270385742 L 9.156996726989746 -40.87126159667969 C 9.07056713104248 -40.78206253051758 8.993327140808105 -40.6827507019043 8.950106620788574 -40.5632209777832 C 8.934476852416992 -40.50253295898438 8.925276756286621 -40.44368362426758 8.925276756286621 -40.37931060791016 L 8.654936790466309 -39.85058212280273 L 8.654936790466309 -39.46806335449219 L 8.50689697265625 -39.41289138793945 L 8.50689697265625 -38.39498138427734 L 8.654936790466309 -38.39498138427734 L 8.654936790466309 -35.35411071777344 L 6.831517219543457 -34.84101104736328 L 6.831517219543457 -29.27421188354492 L 8.351496696472168 -26.85126113891602 L 8.351496696472168 -5.642425537109375 L 17.75271606445312 -5.642425537109375 L 17.75271606445312 -26.85126113891602 L 19.26901626586914 -29.27421188354492 L 19.26901626586914 -34.84009170532227 L 17.45938682556152 -35.34767150878906 L 17.45938682556152 -38.38946151733398 L 17.69202613830566 -38.38946151733398 L 17.69202613830566 -39.38439178466797 L 17.45295715332031 -39.47910308837891 L 17.45295715332031 -39.8487434387207 L 17.44007682800293 -39.87541198730469 C 17.45295715332031 -40.08230209350586 17.41801643371582 -40.32874298095703 17.29847717285156 -40.49057388305664 C 17.22674751281738 -40.60275268554688 17.09709739685059 -40.71586227416992 16.97203636169434 -40.81333160400391 L 16.63825607299805 -41.47263336181641 L 16.33664703369141 -41.7889518737793 L 16.31182670593262 -41.93331146240234 L 16.12975692749023 -42.0013542175293 L 15.82723617553711 -42.31767272949219 L 15.82723617553711 -42.63399124145508 C 15.82723617553711 -42.63399124145508 15.66079711914062 -42.64042282104492 15.49068641662598 -42.67169189453125 L 14.31461715698242 -43.90385437011719 L 14.25760650634766 -43.90385437011719 C 14.04151725769043 -44.21189117431641 13.87140655517578 -44.50890350341797 13.88427734375 -44.6403923034668 C 13.90910720825195 -44.97694396972656 14.24013710021973 -45.06336975097656 14.24013710021973 -45.33370971679688 C 14.24013710021973 -45.60404968261719 14.21806716918945 -47.10563278198242 14.48840713500977 -47.42747497558594 C 14.75322723388672 -47.75942230224609 15.05207633972168 -48.50975036621094 15.02356719970703 -48.81963348388672 C 14.99230670928955 -49.11204147338867 14.99230670928955 -49.56721496582031 14.99230670928955 -49.56721496582031 C 14.99230670928955 -49.56721496582031 15.82906723022461 -48.96491241455078 15.95504665374756 -48.60446166992188 C 16.07458686828613 -48.245849609375 16.10676574707031 -47.10563278198242 16.31457710266113 -47.10563278198242 C 16.52239608764648 -47.10563278198242 16.9187068939209 -47.75942230224609 16.88376617431641 -48.245849609375 C 16.85618591308594 -48.72309112548828 16.28975677490234 -49.32169342041016 16.46538734436035 -49.44766998291016 C 16.64744758605957 -49.56721496582031 17.90995597839355 -50.07111358642578 17.93570709228516 -51.36856079101562 C 17.95685577392578 -52.66325378417969 16.97571754455566 -53.16990280151367 16.19228744506836 -53.71150970458984 C 15.41804695129395 -54.24943161010742 15.05391693115234 -54.60712432861328 15.13850688934326 -55.06137084960938 C 15.23321723937988 -55.50826263427734 14.51874732971191 -56.29445266723633 14.36150741577148 -56.67881011962891 C 14.2199068069458 -57.06869506835938 14.09392738342285 -58.30269241333008 14.09392738342285 -58.30269241333008 C 14.09392738342285 -58.30269241333008 15.06277656555176 -57.01379776000977 15.28833770751953 -57.01379776000977 C 15.29125213623047 -57.01379776000977 15.29400444030762 -57.01400756835938 15.29666709899902 -57.01444244384766 C 15.3078784942627 -57.01612854003906 15.32462120056152 -57.01692962646484 15.34621429443359 -57.01692962646484 C 15.72482776641846 -57.01693725585938 17.60283660888672 -56.77168273925781 17.60283660888672 -56.77168273925781 C 17.60283660888672 -56.77168273925781 17.93662643432617 -55.95975494384766 18.12144660949707 -55.95975494384766 C 18.29247665405273 -55.95975494384766 18.44879722595215 -56.38273239135742 18.4773063659668 -56.61996459960938 C 18.50580596923828 -56.85904312133789 18.74856758117676 -57.3675422668457 18.56557655334473 -57.55144500732422 C 18.41863250732422 -57.6976318359375 18.26669692993164 -57.84756469726562 18.05580711364746 -57.84756469726562 C 18.01067733764648 -57.84756469726562 17.96285247802734 -57.8406982421875 17.91179656982422 -57.82546234130859 C 17.60007667541504 -57.72983169555664 17.60007667541504 -57.37030029296875 17.45479583740234 -57.37030029296875 C 17.30122756958008 -57.37030029296875 15.6828670501709 -57.8475341796875 15.53206634521484 -57.97626495361328 C 15.38126659393311 -58.09580230712891 14.54449653625488 -59.7996826171875 14.54449653625488 -59.7996826171875 C 14.54449653625488 -59.7996826171875 14.88103675842285 -60.03876113891602 14.88103675842285 -60.37990188598633 C 14.88103675842285 -60.70266342163086 14.82127666473389 -61.81896209716797 14.82127666473389 -61.81896209716797 C 14.82127666473389 -61.81896209716797 15.50447654724121 -62.26585388183594 15.56056690216064 -62.50860214233398 C 15.62309646606445 -62.75228118896484 15.62309646606445 -62.89664459228516 15.62309646606445 -62.89664459228516 C 15.62309646606445 -62.89664459228516 16.22722625732422 -63.08055114746094 16.28791618347168 -63.406982421875 C 16.34492683410645 -63.73893356323242 16.3697566986084 -64.31271362304688 16.70629692077637 -64.36973571777344 C 17.0327262878418 -64.42765808105469 17.39502716064453 -64.58396911621094 17.58076667785645 -64.96925354003906 C 17.76283645629883 -65.36005401611328 17.65984725952148 -65.75545501708984 17.65984725952148 -65.75545501708984 C 17.65984725952148 -65.75545501708984 18.11868667602539 -66.08095550537109 18.19776725769043 -66.43865203857422 C 18.28236770629883 -66.79727172851562 18.32098770141602 -67.01243591308594 18.32098770141602 -67.01243591308594 C 18.32098770141602 -67.01243591308594 19.62027740478516 -67.52093505859375 19.67728614807129 -67.85564422607422 C 19.73429679870605 -68.18207550048828 19.43453598022461 -68.39081573486328 19.43453598022461 -68.39081573486328 C 19.43453598022461 -68.39081573486328 20.25014686584473 -69.22941589355469 20.18302726745605 -69.53194427490234 C 20.17492485046387 -69.57209777832031 20.13827514648438 -69.59032440185547 20.07807540893555 -69.59033203125 C 19.67370223999023 -69.59034729003906 18.20605659484863 -68.76792907714844 17.18077659606934 -68.24368286132812 C 16.0074577331543 -67.6441650390625 15.13207626342773 -67.406005859375 14.8148365020752 -66.62623596191406 C 14.48748683929443 -65.84280395507812 13.60933685302734 -63.76651000976562 13.60933685302734 -63.76651000976562 C 13.60933685302734 -63.76651000976562 13.24980735778809 -63.94858169555664 13.22221660614014 -64.24927520751953 C 13.19489479064941 -64.51287841796875 12.91184043884277 -64.84394836425781 12.5229377746582 -64.84394836425781 C 12.46688461303711 -64.84394836425781 12.40867233276367 -64.83707427978516 12.34866714477539 -64.82212829589844 C 11.86591720581055 -64.69615936279297 11.8944263458252 -64.15456390380859 11.65994644165039 -64.036865234375 C 11.41718673706055 -63.92375183105469 10.96570682525635 -63.40790176391602 11.18271636962891 -62.95273208618164 C 11.38868713378906 -62.50584411621094 11.48155689239502 -62.11597442626953 11.62868690490723 -61.99551391601562 C 11.76752662658691 -61.87597274780273 11.72063636779785 -61.39966201782227 11.53580665588379 -61.24885177612305 C 11.45427703857422 -61.18021392822266 11.37405014038086 -61.14921188354492 11.28280735015869 -61.14921188354492 C 11.17236042022705 -61.14921188354492 11.04576683044434 -61.19462585449219 10.88110637664795 -61.273681640625 C 10.57582664489746 -61.43276214599609 10.09215641021729 -61.69666290283203 9.94594669342041 -61.84838104248047 C 9.792387008666992 -61.99643325805664 9.401597023010254 -63.22399139404297 9.438376426696777 -63.52744293212891 C 9.465956687927246 -63.82996368408203 9.611247062683105 -64.036865234375 9.611247062683105 -64.036865234375 C 9.611247062683105 -64.036865234375 10.63191699981689 -64.15456390380859 10.75145721435547 -64.33938598632812 C 10.88110637664795 -64.52328491210938 10.96202659606934 -64.88097381591797 10.90317630767822 -65.00051879882812 C 10.83880710601807 -65.12649536132812 10.78455638885498 -65.21293640136719 10.52065658569336 -65.21293640136719 C 10.25674724578857 -65.21293640136719 9.527566909790039 -65.18350219726562 9.278376579284668 -65.09339141845703 C 9.047576904296875 -65.00051879882812 8.174026489257812 -64.94534301757812 8.054487228393555 -64.85523223876953 C 7.931266784667969 -64.76052093505859 7.931266784667969 -64.42581939697266 8.022306442260742 -64.21984100341797 C 8.115177154541016 -64.01387023925781 8.082077026367188 -63.88421249389648 8.292646408081055 -63.88421249389648 C 8.502296447753906 -63.88421249389648 8.677927017211914 -63.79778289794922 8.677927017211914 -63.79778289794922 L 8.653097152709961 -62.86630249023438 C 8.653097152709961 -62.86630249023438 7.489896774291992 -64.79362487792969 5.889006614685059 -66.23360443115234 C 4.328097343444824 -67.64337158203125 0.5005931854248047 -70.11396789550781 0.1120109558105469 -70.11396789550781 M 0.1120071411132812 -71.11396026611328 C 0.3715362548828125 -71.11396026611328 0.7269859313964844 -71.11396026611328 3.112457275390625 -69.53657531738281 C 4.541747093200684 -68.59146118164062 5.830276489257812 -67.63413238525391 6.559267044067383 -66.97572326660156 C 6.976524353027344 -66.60040283203125 7.364361763000488 -66.19668579101562 7.712759971618652 -65.80005645751953 C 7.924575805664062 -65.88525390625 8.17643928527832 -65.92041015625 8.524096488952637 -65.96893310546875 C 8.652278900146484 -65.98682403564453 8.862858772277832 -66.01621246337891 8.941330909729004 -66.03488159179688 C 9.423911094665527 -66.20792388916016 10.40963745117188 -66.21293640136719 10.52065658569336 -66.21293640136719 C 11.03789520263672 -66.21293640136719 11.43157005310059 -66.01571655273438 11.69363117218018 -65.62603759765625 C 11.80981254577637 -65.69310760498047 11.94312000274658 -65.74979400634766 12.09617710113525 -65.78973388671875 L 12.10708618164062 -65.79251098632812 C 12.24415683746338 -65.82664489746094 12.38407707214355 -65.84394073486328 12.52293682098389 -65.84394073486328 C 12.8179817199707 -65.84394073486328 13.08587837219238 -65.76938629150391 13.31727409362793 -65.64511871337891 C 13.5354118347168 -66.1622314453125 13.75827693939209 -66.69142150878906 13.89044857025146 -67.00770568847656 C 14.28726577758789 -67.97771453857422 15.13862991333008 -68.37807464599609 16.03990745544434 -68.80192565917969 C 16.25980758666992 -68.90533447265625 16.48719596862793 -69.01227569580078 16.72577667236328 -69.13417053222656 C 16.92607688903809 -69.23659515380859 17.14307594299316 -69.35036468505859 17.37282752990723 -69.47080230712891 C 18.8902473449707 -70.26633453369141 19.5597972869873 -70.59033203125 20.07806587219238 -70.59033203125 C 20.61091232299805 -70.59024047851562 21.05446243286133 -70.24158477783203 21.16094779968262 -69.74093627929688 C 21.28039169311523 -69.18563842773438 20.97511291503906 -68.68561553955078 20.64854049682617 -68.26615142822266 C 20.68946075439453 -68.08724975585938 20.69873809814453 -67.89179992675781 20.66237640380859 -67.68360137939453 C 20.55762672424316 -67.06854248046875 20.0087776184082 -66.71121978759766 19.43137741088867 -66.41732025146484 C 19.35000038146973 -66.37590026855469 19.26919746398926 -66.33678436279297 19.19245147705078 -66.30087280273438 C 19.18603134155273 -66.27299499511719 19.17932510375977 -66.24418640136719 19.17232894897461 -66.21449279785156 C 19.09131622314453 -65.85771179199219 18.88645553588867 -65.55850219726562 18.68433952331543 -65.33655548095703 C 18.66992568969727 -65.10107421875 18.61740112304688 -64.82637786865234 18.48721694946289 -64.54694366455078 L 18.4815559387207 -64.53498840332031 C 18.24758148193359 -64.04966735839844 17.84050178527832 -63.69211196899414 17.31282043457031 -63.50008010864258 C 17.30887222290039 -63.47343826293945 17.30527114868164 -63.44811630249023 17.30216598510742 -63.42627334594727 C 17.29261779785156 -63.359130859375 17.28338623046875 -63.29534149169922 17.27348709106445 -63.23772430419922 L 17.27106666564941 -63.22419357299805 C 17.18025588989258 -62.7357292175293 16.84243774414062 -62.41436004638672 16.51722526550293 -62.21262741088867 C 16.47073173522949 -62.04581832885742 16.34418487548828 -61.74277496337891 15.84710502624512 -61.33134460449219 C 15.86349296569824 -60.98620223999023 15.88103675842285 -60.57187652587891 15.88103675842285 -60.37990188598633 C 15.88103675842285 -60.11333084106445 15.81372165679932 -59.88161849975586 15.71864986419678 -59.68727874755859 C 15.90435886383057 -59.32183456420898 16.08660697937012 -58.97501373291016 16.20245170593262 -58.77127456665039 C 16.42531585693359 -58.69145202636719 16.78974723815918 -58.57736206054688 17.09443664550781 -58.48893737792969 C 17.22671699523926 -58.60572814941406 17.39794540405273 -58.71381759643555 17.61850738525391 -58.7814826965332 L 17.62579727172852 -58.78369140625 C 17.76778602600098 -58.82607269287109 17.91246604919434 -58.84756469726562 18.05580711364746 -58.84756469726562 C 18.68061637878418 -58.84756469726562 19.06456756591797 -58.46559143066406 19.27084732055664 -58.26038360595703 L 19.27443695068359 -58.25679016113281 C 19.8182258605957 -57.71029281616211 19.60491752624512 -56.96570205688477 19.50239753723145 -56.60786437988281 C 19.49033164978027 -56.56573867797852 19.47419929504395 -56.50942230224609 19.46792602539062 -56.48269653320312 C 19.37314796447754 -55.74503326416016 18.91409492492676 -54.95975494384766 18.12144660949707 -54.95975494384766 C 17.55972290039062 -54.95975494384766 17.20194816589355 -55.34436798095703 16.92939758300781 -55.84922790527344 C 16.57749176025391 -55.89278030395508 16.22842216491699 -55.93375396728516 15.94513702392578 -55.96429443359375 C 16.08187866210938 -55.66893005371094 16.1709041595459 -55.35225677490234 16.14188957214355 -55.02222442626953 C 16.21476554870605 -54.9448127746582 16.38155555725098 -54.79768371582031 16.76286697387695 -54.53275299072266 C 16.83748626708984 -54.48117065429688 16.9160270690918 -54.42864227294922 16.99529647827148 -54.37557983398438 C 17.77903747558594 -53.85097503662109 18.96343612670898 -53.05818176269531 18.93557739257812 -51.35223388671875 C 18.92075729370117 -50.60534286499023 18.62836647033691 -49.92349243164062 18.08993721008301 -49.37688446044922 C 17.95842742919922 -49.24337005615234 17.82298278808594 -49.12851715087891 17.69290924072266 -49.03049087524414 C 17.78666305541992 -48.81718444824219 17.86517715454102 -48.57476806640625 17.88163375854492 -48.31124877929688 C 17.92866706848145 -47.62313842773438 17.58002281188965 -46.91209030151367 17.23515701293945 -46.54157257080078 C 16.89980697631836 -46.1812629699707 16.54944610595703 -46.10563278198242 16.31457710266113 -46.10563278198242 C 16.08904266357422 -46.10563278198242 15.59143161773682 -46.18009185791016 15.31186103820801 -46.78921508789062 C 15.2794017791748 -46.60435485839844 15.23696327209473 -46.20637130737305 15.23996734619141 -45.39555358886719 L 15.24013710021973 -45.33370971679688 C 15.24013710021973 -45.02029418945312 15.13105964660645 -44.77632141113281 15.01857662200928 -44.60261535644531 L 15.03799629211426 -44.59430313110352 L 16.21406745910645 -43.36214065551758 L 16.16955947875977 -43.31966018676758 L 16.50704002380371 -42.96781921386719 L 16.54993629455566 -43.00884246826172 L 16.85245704650879 -42.69252395629883 L 16.82815933227539 -42.66928482055664 L 17.01866912841797 -42.43926239013672 L 17.06037712097168 -42.47903060913086 L 17.36198616027832 -42.16271209716797 L 17.53043746948242 -41.92431259155273 L 17.77060699462891 -41.44991683959961 C 17.92083168029785 -41.3167610168457 18.0336856842041 -41.19047164916992 18.12304306030273 -41.05670547485352 C 18.40679740905762 -40.65409851074219 18.44912147521973 -40.18683624267578 18.44181632995605 -39.89743041992188 L 18.45295715332031 -39.8487434387207 L 18.45295715332031 -39.73624801635742 L 18.69202613830566 -39.38439178466797 L 18.69202613830566 -38.38946151733398 L 18.45938682556152 -38.15682220458984 L 18.45938682556152 -36.10577392578125 L 19.53908729553223 -35.80293273925781 L 20.26901626586914 -34.84009170532227 L 20.26901626586914 -29.27421188354492 L 20.11670684814453 -28.74372100830078 L 18.75271606445312 -26.56415557861328 L 18.75271606445312 -5.642425537109375 L 17.75271606445312 -4.642425537109375 L 8.351496696472168 -4.642425537109375 L 7.351496696472168 -5.642425537109375 L 7.351496696472168 -26.56356048583984 L 5.984406471252441 -28.74279403686523 L 5.831517219543457 -29.27421188354492 L 5.831517219543457 -34.84101104736328 L 6.560647010803223 -35.80362319946289 L 7.654936790466309 -36.11154937744141 L 7.654936790466309 -38.24694061279297 L 7.50689697265625 -38.39498138427734 L 7.50689697265625 -39.41289138793945 L 7.654936790466309 -39.62604904174805 L 7.654936790466309 -39.85058212280273 L 7.764566421508789 -40.30582046508789 L 7.950758934020996 -40.66997528076172 C 7.959027290344238 -40.71710968017578 7.969328880310059 -40.76455688476562 7.981706619262695 -40.8126220703125 L 8.009696960449219 -40.90326309204102 C 8.078620910644531 -41.09389114379883 8.182823181152344 -41.27157974243164 8.326422691345215 -41.44272613525391 L 8.577667236328125 -41.93105316162109 L 8.735466957092285 -42.15549087524414 L 8.936816215515137 -42.3714485168457 C 8.918088912963867 -42.60358428955078 8.947617530822754 -42.84419250488281 9.026605606079102 -43.08506011962891 C 9.159201622009277 -43.51034545898438 9.418869018554688 -43.84756851196289 9.674572944641113 -44.09527206420898 C 9.650744438171387 -44.31873321533203 9.656534194946289 -44.57209777832031 9.72071647644043 -44.84165954589844 L 9.724146842956543 -44.8556022644043 C 9.878914833068848 -45.46657562255859 10.33942127227783 -45.81338119506836 10.6940746307373 -46.06612396240234 C 10.42832279205322 -46.22061920166016 10.18590641021729 -46.44670867919922 9.983857154846191 -46.73289489746094 C 9.609315872192383 -47.26339721679688 9.441454887390137 -47.89574432373047 9.53225040435791 -48.43000793457031 C 8.831636428833008 -48.65571594238281 8.334623336791992 -49.20484924316406 8.149078369140625 -49.96120071411133 C 8.099899291992188 -50.02829360961914 7.992259979248047 -50.14399337768555 7.917686462402344 -50.22415161132812 C 7.63581657409668 -50.52713012695312 7.285026550292969 -50.90420150756836 7.239437103271484 -51.42586517333984 C 7.166906356811523 -52.22751235961914 7.831357002258301 -52.66419982910156 8.150676727294922 -52.87406158447266 C 8.160952568054199 -52.88081359863281 8.172405242919922 -52.88834381103516 8.184234619140625 -52.89615631103516 C 8.420867919921875 -53.35453796386719 8.910200119018555 -53.67120742797852 9.2320556640625 -53.83982849121094 C 9.234249114990234 -53.84691619873047 9.236415863037109 -53.85413360595703 9.238550186157227 -53.86144638061523 C 9.05058479309082 -54.07971954345703 8.828017234802246 -54.43251037597656 8.794356346130371 -54.96729278564453 L 8.793597221374512 -54.98094177246094 C 8.773746490478516 -55.38421249389648 8.908086776733398 -55.76499176025391 9.171876907348633 -56.0531120300293 C 9.370609283447266 -56.27018737792969 9.607484817504883 -56.40097045898438 9.823698043823242 -56.47972106933594 C 9.829309463500977 -56.48878479003906 9.834893226623535 -56.49781799316406 9.840482711791992 -56.50687408447266 C 9.667380332946777 -56.5501708984375 9.512707710266113 -56.62631988525391 9.377694129943848 -56.72646331787109 C 9.325065612792969 -56.72064208984375 9.270912170410156 -56.71752166748047 9.215236663818359 -56.71752166748047 C 8.998174667358398 -56.71752166748047 8.787246704101562 -56.76519393920898 8.588244438171387 -56.85923767089844 C 8.227879524230957 -57.0285758972168 7.999011039733887 -57.31133270263672 7.867691993713379 -57.63852691650391 C 7.859255790710449 -57.64102172851562 7.850839614868164 -57.64358139038086 7.842427253723145 -57.64620971679688 L 7.813237190246582 -57.65584182739258 C 7.306803703308105 -57.83149337768555 7.03480052947998 -58.243408203125 6.919948577880859 -58.7108154296875 C 6.692150115966797 -58.81018829345703 6.449657440185547 -58.95635604858398 6.222896575927734 -59.17115020751953 C 6.012575149536133 -59.36906814575195 5.719564437866211 -59.76762390136719 5.763408660888672 -60.42285537719727 C 5.673185348510742 -60.45248031616211 5.584530830383301 -60.48690795898438 5.499011039733887 -60.52679824829102 C 4.935046195983887 -60.78542709350586 4.677407264709473 -61.31481170654297 4.56013011932373 -61.76773834228516 C 4.320978164672852 -61.85993957519531 4.044971466064453 -61.97695159912109 3.794916152954102 -62.10917282104492 C 3.178035736083984 -62.43283843994141 2.837930679321289 -63.16636657714844 2.662282943725586 -63.71746063232422 C 2.30192756652832 -63.91585540771484 1.804195404052734 -64.21799468994141 1.492256164550781 -64.52477264404297 L 1.483827590942383 -64.53316497802734 C 1.133140563964844 -64.8863525390625 0.9399223327636719 -65.34814453125 0.8356571197509766 -65.70537567138672 C 0.260284423828125 -66.0614013671875 -0.6062965393066406 -66.71245574951172 -0.8624324798583984 -67.52587127685547 C -1.065324783325195 -68.16747283935547 -1.014053344726562 -68.66236877441406 -0.9011726379394531 -69.00819396972656 C -1.066343307495117 -69.74709320068359 -1.103122711181641 -70.60971832275391 -0.3762035369873047 -70.9942626953125 L -0.3354129791259766 -71.01466369628906 C -0.1958026885986328 -71.08055114746094 -0.0452728271484375 -71.11396026611328 0.1120071411132812 -71.11396026611328 Z"/>
    </g>
  </g>
</svg>
