<svg xmlns="http://www.w3.org/2000/svg" width="60.326" height="66.917" viewBox="0 0 60.326 66.917">
  <defs>
    <style>
      .cls-1 {
        fill: none;
        stroke: #fff;
        stroke-linejoin: round;
      }
    </style>
  </defs>
  <path id="Path_425" data-name="Path 425" class="cls-1" d="M60.722-1.158a4.813,4.813,0,0,1-.667-2.717,23.952,23.952,0,0,0-1.585-6.2c-1.541-4.036-1.512-4.293,1.076-9.4,1.959-3.866,2.911-7.791,3.61-14.884.956-9.7,2.4-15.133,4.02-15.133.483,0,.879-1.993.879-4.429,0-2.539.62-5.048,1.452-5.881.8-.8,1.156-1.749.794-2.111s.36-.925,1.6-1.25c1.38-.361,2.058-1.126,1.738-1.96-.723-1.884.383-1.706,3.912.632A13.424,13.424,0,0,0,83.77-62.5c3.58.007,4.71,1.423,5.808,7.275.639,3.406.986,3.732,3.972,3.732,2.424,0,3.407-.515,3.792-1.988.558-2.135,5.223-4.433,6.9-3.4.559.346.774,1.843.477,3.327-.537,2.682-.507,2.7,5.112,2.629,5.3-.065,5.714.1,6.638,2.7.844,2.369.655,3-1.315,4.378-1.8,1.259-2,1.794-.949,2.446,1.962,1.211,2.586,20.83.7,22.025-2.439,1.546-4.848.992-4.848-1.115,0-1.111-.667-2-1.5-2-1.064,0-1.5-1.09-1.515-3.75a15.294,15.294,0,0,0-1.427-6.25c-.777-1.375-2.171-3.963-3.1-5.75-1.747-3.367-3.459-4.285-3.459-1.856,0,.767-1.407,2.9-3.127,4.742-3.072,3.289-3.106,3.431-1.9,8.131,1.364,5.321,1.007,6.233-4.92,12.587-2.712,2.907-3.573,3.271-6.46,2.729-3.013-.565-3.451-.336-4.583,2.4-1.118,2.7-1.708,3.021-5.562,3.021-3.648,0-4.639.461-6.447,3C63.991-.593,62.11.23,60.722-1.158Z" transform="translate(-56.944 66.907)"/>
</svg>
