<svg xmlns="http://www.w3.org/2000/svg" width="78.041" height="65.78" viewBox="0 0 78.041 65.78">
  <defs>
    <style>
      .cls-1 {
        fill: none;
        stroke: #fff;
        stroke-linejoin: round;
      }
    </style>
  </defs>
  <path id="Path_423" data-name="Path 423" class="cls-1" d="M40.308-59.633c-.385-1.473-1.449-1.8-5.614-1.737-2.826.044-6.1.688-7.278,1.43-1.848,1.166-2.347,1.119-3.658-.35a9.984,9.984,0,0,1-1.86-4.7c-.188-1.65-1.017-3.306-1.842-3.68-2.652-1.2-6.814-.863-8.357.68-2.311,2.311-5.531,1.839-6.825-1-.627-1.375-1.4-2.507-1.729-2.515a5.917,5.917,0,0,1-1.957-.882c-1.107-.7-.931-1.456.923-3.965,2.152-2.911,2.189-3.21.618-4.947-2.465-2.723-2.1-4.209,2.339-9.583,2.207-2.67,4.271-5.886,4.587-7.146a6.193,6.193,0,0,1,3.4-3.462c3.01-1.247,4.287-4.185,3.36-7.73-.348-1.331.207-3.258,1.435-4.983a14.871,14.871,0,0,0,2.354-5.3c.431-3.055,3.842-3.807,7.058-1.555a11.878,11.878,0,0,0,5.766,1.573c2.657,0,4.5.9,7.469,3.624a22.663,22.663,0,0,0,6.839,4.451c2.445.7,3.29.409,5.417-1.874,2.767-2.972,8.375-3.762,9.364-1.32.309.763,3.346,2.241,6.75,3.286,3.712,1.14,6.189,2.458,6.189,3.293a5.105,5.105,0,0,0,1.5,2.892c1.333,1.333,1.326,1.674-.07,3.069a2.476,2.476,0,0,1-3.434.572c-2.9-1.552-5-1.183-5,.879a4.64,4.64,0,0,1-1.5,3.123,4.611,4.611,0,0,0-1.5,3.1c0,1.525-.53,1.746-3,1.253q-3-.6-3,.6c0,.762-1.271,1.092-3.477.9-4.553-.392-6.7,2.225-5.859,7.146a14.83,14.83,0,0,0,1.351,4.5,14.981,14.981,0,0,1,1.443,4.223c.444,2.075,2.444,4.8,5.616,7.653,5.449,4.9,6.116,6.624,2.561,6.624a9.32,9.32,0,0,0-4.777,1.9C52.5-56.911,41.012-56.94,40.308-59.633Z" transform="translate(-0.002 122.877)"/>
</svg>
