<?xml version="1.0" encoding="UTF-8" standalone="no"?>
<!DOCTYPE svg PUBLIC "-//W3C//DTD SVG 1.1//EN" "http://www.w3.org/Graphics/SVG/1.1/DTD/svg11.dtd">
<svg width="100%" height="100%" viewBox="0 0 32 32" version="1.1" xmlns="http://www.w3.org/2000/svg" xmlns:xlink="http://www.w3.org/1999/xlink" xml:space="preserve" xmlns:serif="http://www.serif.com/" style="fill-rule:evenodd;clip-rule:evenodd;stroke-linejoin:round;stroke-miterlimit:2;">
    <g transform="matrix(1,0,0,1,-0.004,-0.006)">
        <g id="Icon_awesome-instagram" transform="matrix(1,0,0,1,0.005,-2.238)">
            <path d="M15.757,9.914C11.325,9.914 7.678,13.561 7.678,17.993C7.678,22.425 11.325,26.072 15.757,26.072C20.189,26.072 23.836,22.425 23.836,17.993C23.836,17.989 23.836,17.984 23.836,17.98C23.836,13.555 20.195,9.914 15.77,9.914C15.766,9.914 15.761,9.914 15.757,9.914ZM15.757,23.245C12.876,23.245 10.505,20.874 10.505,17.993C10.505,15.112 12.876,12.741 15.757,12.741C18.638,12.741 21.009,15.112 21.009,17.993C21.004,20.872 18.636,23.24 15.757,23.245ZM26.051,9.584C26.051,10.618 25.201,11.468 24.167,11.468C23.133,11.468 22.283,10.618 22.283,9.584C22.283,8.551 23.133,7.701 24.166,7.7C24.168,7.7 24.169,7.7 24.171,7.7C25.202,7.7 26.051,8.549 26.051,9.58C26.051,9.581 26.051,9.583 26.051,9.584ZM31.4,11.5C31.451,9.052 30.537,6.68 28.855,4.9C27.072,3.224 24.702,2.31 22.255,2.355C19.655,2.207 11.855,2.207 9.255,2.355C6.809,2.307 4.439,3.218 2.655,4.893C0.976,6.675 0.062,9.046 0.11,11.493C-0.038,14.093 -0.038,21.893 0.11,24.493C0.059,26.941 0.973,29.313 2.655,31.093C4.439,32.768 6.808,33.681 9.255,33.638C11.855,33.786 19.655,33.786 22.255,33.638C24.703,33.689 27.075,32.775 28.855,31.093C30.531,29.31 31.445,26.94 31.4,24.493C31.548,21.893 31.548,14.101 31.4,11.499L31.4,11.5ZM28.041,27.281C27.501,28.653 26.413,29.741 25.041,30.281C22.967,31.104 18.041,30.914 15.753,30.914C13.465,30.914 8.532,31.097 6.465,30.281C5.093,29.741 4.005,28.653 3.465,27.281C2.642,25.207 2.832,20.281 2.832,17.993C2.832,15.705 2.649,10.772 3.465,8.705C4.005,7.333 5.093,6.245 6.465,5.705C8.539,4.882 13.465,5.072 15.753,5.072C18.041,5.072 22.974,4.889 25.041,5.705C26.413,6.245 27.501,7.333 28.041,8.705C28.864,10.779 28.674,15.705 28.674,17.993C28.674,20.281 28.863,25.214 28.041,27.281Z" style="fill:rgb(245,208,102);fill-rule:nonzero;"/>
        </g>
    </g>
</svg>
