<svg xmlns="http://www.w3.org/2000/svg" width="19.6" height="21" viewBox="0 0 19.6 21">
  <path id="Icon_metro-mail-read" data-name="Icon metro-mail-read" d="M17.1,10.328h-7v1.4h7Zm-4.2-2.8H10.1v1.4h2.8Zm8.4-.6v-2.2h-3.08l-3.92-2.8-3.92,2.8H7.3v2.2l-2.8,2v14H24.1v-14l-2.8-2Zm-12.6-.8H19.9v5.355L14.3,16.1l-5.6-4.62V6.128Zm-2.8,5.6,5.513,4.192L5.9,20.128v-8.4Zm1.4,9.8,5.556-4.512,1.444,1.1,1.441-1.1L21.3,21.528H7.3Zm15.4-1.4-5.521-4.2,5.521-4.2v8.4Z" transform="translate(-4.499 -1.928)" fill="#d2d2d2"/>
</svg>
