<svg xmlns="http://www.w3.org/2000/svg" width="50.163" height="65.136" viewBox="0 0 50.163 65.136">
  <defs>
    <style>
      .cls-1 {
        fill: #fff;
      }
    </style>
  </defs>
  <g id="Group_118" data-name="Group 118" transform="translate(-1026 -2840)">
    <g id="Group_11" data-name="Group 11" transform="translate(1026 2840)">
      <g id="Group_10" data-name="Group 10" transform="translate(0)">
        <path id="Path_405" data-name="Path 405" class="cls-1" d="M107.4,45.932l-.022-.037q-.082-.134-.168-.266l-.1-.145c-.039-.058-.079-.117-.12-.174q-.078-.112-.16-.223l-.047-.066-.035-.045q-.1-.13-.2-.256l-.071-.088c-.067-.082-.136-.163-.206-.243l-.087-.1c-.058-.065-.118-.129-.177-.193-.044-.048-.088-.1-.134-.143s-.069-.069-.1-.1A11.06,11.06,0,0,0,101.01,41a.936.936,0,0,0-.1-.023l-8.625-1.6-.046-.006a2.113,2.113,0,0,0-1.186.151,2.224,2.224,0,0,1-.5-1.343V36.617a13.842,13.842,0,0,0,1.585-1.179,11.205,11.205,0,0,0,3.774-7.395,2.966,2.966,0,0,0,2.824-2.959V22.859a2.949,2.949,0,0,0-1.082-2.288V15.457c3.119-1.537,3.8-3.329,3.8-4.593,0-2.169-2.02-4.885-5.273-7.087a21.763,21.763,0,0,0-24.505,0c-3.253,2.2-5.273,4.917-5.273,7.087,0,1.264.678,3.056,3.8,4.593v5.114a2.95,2.95,0,0,0-1.082,2.288v2.225a2.966,2.966,0,0,0,2.824,2.959,11.2,11.2,0,0,0,3.774,7.395A13.842,13.842,0,0,0,77.3,36.617v1.561a2.223,2.223,0,0,1-.5,1.343,2.11,2.11,0,0,0-1.232-.144l-8.625,1.6a.936.936,0,0,0-.1.023,11.061,11.061,0,0,0-4.767,2.843l-.106.106c-.045.046-.088.094-.132.141-.06.065-.12.129-.179.2l-.086.1q-.1.121-.207.244l-.07.088q-.1.127-.2.256l-.035.045-.047.066q-.081.11-.16.223-.061.087-.12.175l-.1.145q-.086.132-.168.266l-.022.037A11.058,11.058,0,0,0,58.85,51.7v1.163a.954.954,0,1,0,1.909,0V51.7a9.24,9.24,0,0,1,.4-2.708,3.122,3.122,0,0,0,1.952.685,3.179,3.179,0,0,0,.341-.018,3.126,3.126,0,0,0,2.114-1.154l1.039-1.288a3.147,3.147,0,0,0-.1-4.072c.274-.112.554-.212.842-.3l5.5-1.022,4.367,6.111a2.247,2.247,0,0,0,1.831.949,2.275,2.275,0,0,0,.89-.183l.291-.124L81.5,50.055,79.667,63.228H67.674V55.488a.954.954,0,1,0-1.909,0v7.739H61.947a1.19,1.19,0,0,1-1.188-1.188V57.3a.954.954,0,1,0-1.909,0v4.734a3.1,3.1,0,0,0,3.1,3.1h43.968a3.1,3.1,0,0,0,3.1-3.1V51.7A11.061,11.061,0,0,0,107.4,45.932Zm-42.281.088-1.039,1.288a1.238,1.238,0,0,1-1.74.187l-.4-.321q.128-.229.268-.449l0-.005c.08-.126.164-.248.25-.369l.079-.11q.115-.157.236-.309l.062-.079q.137-.168.282-.328l.085-.093c.1-.1.192-.205.292-.3l.026-.026a9.222,9.222,0,0,1,1.2-.991l.209.169a1.237,1.237,0,0,1,.186,1.74Zm37.8-1.741.209-.169a9.214,9.214,0,0,1,1.2.991l.026.026c.1.1.2.2.292.3l.085.093q.144.161.282.328l.062.079q.121.152.236.309l.079.11c.086.121.17.244.25.369l0,.005q.14.22.268.449l-.4.321a1.238,1.238,0,0,1-1.74-.187l-1.039-1.288A1.239,1.239,0,0,1,102.927,44.279Zm-11.4-2.8,0,0,.25-.187a.2.2,0,0,1,.155-.036l1,.186-3.849,5.386a.349.349,0,0,1-.423.119l-2.838-1.205Zm-7.6,3.3L78.37,40.62a4.1,4.1,0,0,0,.843-2.442v-.559a12.444,12.444,0,0,0,4.709.958h.021a12.448,12.448,0,0,0,4.709-.958v.559a4.1,4.1,0,0,0,.842,2.442Zm1.858,3.018-.869,1.011H82.943l-.869-1.011,1.858-.789ZM70.2,13.281c-1.227-.756-1.887-1.592-1.887-2.418,0-1.721,2.3-4.06,4.434-5.506a19.854,19.854,0,0,1,22.365,0c2.136,1.446,4.434,3.785,4.434,5.506,0,.826-.661,1.661-1.887,2.418V11.545a2.947,2.947,0,0,0-2.219-2.856A52.057,52.057,0,0,0,83.334,7h-.012A42.181,42.181,0,0,0,72.353,8.672,2.959,2.959,0,0,0,70.2,11.51Zm3.31,3.351-.04-.025c-.062-.04-.121-.079-.179-.119l-.07-.049q-.071-.05-.138-.1l-.09-.07c-.035-.028-.07-.056-.1-.084s-.069-.06-.1-.09l-.073-.067c-.037-.036-.072-.072-.106-.108l-.049-.052,0-.006H88.582a.954.954,0,0,0,0-1.909H72.111V11.51a1.043,1.043,0,0,1,.758-1A40.255,40.255,0,0,1,83.321,8.9h.011a50.112,50.112,0,0,1,11.636,1.634,1.039,1.039,0,0,1,.782,1.007v2.405h-2.56a.954.954,0,0,0,0,1.909H95.3l0,.006-.049.052c-.034.036-.069.072-.106.108l-.073.067c-.033.03-.066.06-.1.09s-.068.056-.1.084l-.09.07q-.067.051-.138.1l-.07.049c-.058.04-.117.08-.179.119l-.04.025a9.42,9.42,0,0,1-1.409.714l-.033.016a24.252,24.252,0,0,1-8.977,1.48,24.252,24.252,0,0,1-8.977-1.48l-.033-.016A9.42,9.42,0,0,1,73.512,16.632Zm.09,2.218v1.859a5.3,5.3,0,0,0-1.491-.5V17.995A9.653,9.653,0,0,0,73.6,18.85Zm20.658,0a9.649,9.649,0,0,0,1.491-.855v2.218a5.3,5.3,0,0,0-1.491.5Zm-17.3,15.141a9.366,9.366,0,0,1-3.168-6.92.954.954,0,0,0-.954-.934h-.759a1.054,1.054,0,0,1-1.053-1.053V22.859a1.048,1.048,0,0,1,.387-.815,3.464,3.464,0,0,1,1.5.469l.016.01a2.208,2.208,0,0,1,.218.161l.024.021c.034.029.068.06.1.092s.058.054.088.079l.027.021q.034.027.07.051l.028.019c.032.021.065.041.1.058h0c.034.018.069.034.1.049l.03.012c.027.011.054.02.082.029l.031.01c.036.01.072.02.109.027h0c.038.007.076.013.114.017l.031,0q.043,0,.087,0h.032c.038,0,.075,0,.113-.005h0c.039,0,.077-.01.116-.017l.032-.007.085-.021.034-.01c.038-.012.075-.025.112-.04a1.314,1.314,0,0,0,.81-1.215V19.577a29.038,29.038,0,0,0,8.42,1.174,29.038,29.038,0,0,0,8.42-1.174v2.283a1.313,1.313,0,0,0,.81,1.215c.037.016.075.029.113.041l.032.009c.029.008.058.016.087.022l.031.006a1.3,1.3,0,0,0,.233.023h.03c.03,0,.06,0,.089,0l.029,0a1.3,1.3,0,0,0,.226-.044l.03-.009c.028-.009.055-.018.082-.029l.029-.012c.035-.015.071-.031.1-.049h0c.034-.018.066-.037.1-.058l.028-.019q.035-.024.07-.051l.027-.022c.03-.025.06-.051.088-.079s.065-.062.1-.091l.027-.023c.031-.026.063-.052.1-.076l.009-.007c.035-.026.071-.05.107-.074l.029-.019c.032-.02.065-.04.1-.058l.014-.008q.056-.031.113-.059l.028-.014.1-.047.014-.006.117-.047.021-.008.111-.039.006,0,.123-.038h0a4.01,4.01,0,0,1,.738-.136,1.048,1.048,0,0,1,.387.815v2.225a1.054,1.054,0,0,1-1.053,1.053h-.759a.954.954,0,0,0-.954.934,9.366,9.366,0,0,1-3.168,6.92,10.406,10.406,0,0,1-13.936,0Zm2.229,12.954a.349.349,0,0,1-.423-.119L74.921,41.44l1-.186a.2.2,0,0,1,.155.036l.25.187,0,0,5.7,4.259Zm2.4,16.283,1.741-12.513h1.191l1.741,12.513Zm24.321,0H102.1V55.488a.954.954,0,0,0-1.909,0v7.739H88.2L86.362,50.055l1.271-1.478.291.124a2.274,2.274,0,0,0,.89.183,2.246,2.246,0,0,0,1.832-.949l4.367-6.111,5.5,1.022c.287.086.567.187.842.3a3.151,3.151,0,0,0-.1,4.072l1.039,1.288a3.126,3.126,0,0,0,2.114,1.153,3.18,3.18,0,0,0,.342.018,3.123,3.123,0,0,0,1.952-.685,9.239,9.239,0,0,1,.4,2.708V62.039h0A1.19,1.19,0,0,1,105.915,63.228Z" transform="translate(-58.85)"/>
      </g>
    </g>
  </g>
</svg>
