<svg xmlns="http://www.w3.org/2000/svg" width="51.172" height="57.086" viewBox="0 0 51.172 57.086">
  <defs>
    <style>
      .cls-1 {
        fill: none;
        stroke: #fff;
        stroke-linejoin: round;
      }
    </style>
  </defs>
  <path id="Path_451" data-name="Path 451" class="cls-1" d="M66.264-60.682a4.143,4.143,0,0,1-1.222-2.259c-.007-.577-2.445-3.183-5.418-5.791-3.657-3.207-5.631-5.795-6.1-8a14.414,14.414,0,0,0-1.484-4.259c-1.09-1.385-1.421-5.675-.585-7.59.436-1,2.071-1.641,4.391-1.729,2.034-.076,3.845-.581,4.025-1.121s1.646-.718,3.257-.4c2.459.492,2.93.265,2.93-1.417a4.791,4.791,0,0,1,1.5-3.247,4.768,4.768,0,0,0,1.5-3.229c0-1.5.429-1.807,1.75-1.264,4,1.649,5.115,1.555,7.125-.6,2.109-2.264,2.109-2.271.119-4.125-2.32-2.161-2.272-1.916-1.023-5.2L78-113.466l4.678,2.487c5.6,2.979,7.381,3.124,7.381.6,0-2.589,3.4-6.6,4.838-5.711a2.886,2.886,0,0,1,1.162,2.231c0,.832,1.146,3.468,2.546,5.857l2.546,4.345-2.793,2.591c-1.537,1.425-2.945,2.137-3.13,1.583-.813-2.439-3.835-.82-5.119,2.743a46.643,46.643,0,0,1-3.686,7.457c-1.284,2.039-2.1,4.329-1.8,5.09.352.918-1.167,2.19-4.515,3.779-4.754,2.257-5.046,2.615-5.046,6.191,0,2.451-.531,4-1.5,4.371a3.292,3.292,0,0,0-1.5,2.969c0,1.316-.346,2.393-.768,2.393S69.833-63.362,69-61.982C67.805-60.02,67.21-59.736,66.264-60.682Z" transform="translate(-50.475 116.749)"/>
</svg>
