<svg xmlns="http://www.w3.org/2000/svg" width="50.101" height="51.728" viewBox="0 0 50.101 51.728">
  <defs>
    <style>
      .cls-1 {
        fill: #fff;
      }
    </style>
  </defs>
  <g id="Group_116" data-name="Group 116" transform="translate(-173 -2847)">
    <path id="Path_401" data-name="Path 401" class="cls-1" d="M193.844,149.684c-.2.087-.4.18-.6.275a.621.621,0,0,0,.542,1.118c.18-.087.366-.172.551-.252a.621.621,0,1,0-.492-1.14Z" transform="translate(-1.373 2712.215)"/>
    <path id="Path_402" data-name="Path 402" class="cls-1" d="M144.645,161.7a14.028,14.028,0,0,0-3.874,3.845.621.621,0,1,0,1.031.693,12.791,12.791,0,0,1,3.534-3.5.621.621,0,0,0-.69-1.032Z" transform="translate(45.449 2701.49)"/>
    <path id="Path_403" data-name="Path 403" class="cls-1" d="M69.758,455.907a1.835,1.835,0,1,0,1.835-1.835A1.835,1.835,0,0,0,69.758,455.907Zm2.428,0a.593.593,0,1,1-.593-.593A.593.593,0,0,1,72.186,455.907Z" transform="translate(109.018 2439.282)"/>
    <path id="Path_404" data-name="Path 404" class="cls-1" d="M61.7,30.567H60.4C58.5,22.3,51.1,16.173,42.2,15.276V13.182a3.971,3.971,0,0,0,1.583-3.142,3.879,3.879,0,1,0-7.759,0,3.73,3.73,0,0,0,1.622,3.142v2.094c-9,.9-16.389,7.026-18.283,15.291H18.1a2.365,2.365,0,0,0-2.384,2.256,2.333,2.333,0,0,0,2.34,2.4h.121l.4,2.185a2.642,2.642,0,0,0,2.6,2.161h7.061A9.066,9.066,0,0,0,26.2,40.73c-.014.01-.027.021-.039.032L24.9,41.879a4.3,4.3,0,0,1-1.622.9l-.025-.092a1.042,1.042,0,0,0-.988-.74H14.978a1.054,1.054,0,0,0-1,1.332l3.851,13.837a1.048,1.048,0,0,0,1,.769h7.712a1.046,1.046,0,0,0,.99-1.349l-1.021-3.351L30.2,50.857a2.187,2.187,0,0,1,1.593-.206l.039.008,7.576,1.395a9.826,9.826,0,0,0,1.039.131,9.579,9.579,0,0,0,6.08-1.689l12.154-8.345a.621.621,0,0,0,.18-.832,3.649,3.649,0,0,0-2.72-1.749h2.375a2.652,2.652,0,0,0,2.589-2.1l.466-2.243h.09a2.365,2.365,0,0,0,2.384-2.256,2.333,2.333,0,0,0-2.34-2.4ZM37.244,10.039a2.638,2.638,0,1,1,2.638,2.638,2.638,2.638,0,0,1-2.638-2.638Zm3.717,3.74v1.407c-.414-.015-.69-.024-1.035-.024s-.724.008-1.035.024V13.779a3.816,3.816,0,0,0,1.035.14,4.446,4.446,0,0,0,1.035-.14ZM39.881,16.4c9.242,0,17.2,5.912,19.239,14.163H20.642C22.678,22.316,30.642,16.4,39.881,16.4ZM18.987,56.646,15.251,43.193h6.875l4.14,13.454ZM57.436,41.5,45.823,49.472a8.338,8.338,0,0,1-5.288,1.474,8.556,8.556,0,0,1-.906-.114l-7.556-1.391a3.423,3.423,0,0,0-2.5.339l-.029.017-3.418,2.161-2.482-7.986a5.54,5.54,0,0,0,2.079-1.164l1.235-1.1a7.736,7.736,0,0,1,8.031-.771l.52.251a6.651,6.651,0,0,0,2.879.66h5.04a3.132,3.132,0,0,1,3.058,2.473l-3.582-.162a21.887,21.887,0,0,0-3.986.184.621.621,0,0,0,.17,1.23,20.671,20.671,0,0,1,3.759-.174l4.3.195h.028a.621.621,0,0,0,.621-.621c0-.081,0-.16-.007-.24l6.785-3.653a2.412,2.412,0,0,1,2.857.418ZM34.975,39.571H44.06l-1.9,1.035H38.393a5.4,5.4,0,0,1-2.338-.536l-.52-.251Q35.258,39.684,34.975,39.571Zm11,1.851a4.354,4.354,0,0,0-1.462-.682l1.075-.584.015-.008a2.845,2.845,0,0,1,2.737,0ZM50.678,40.3a1.851,1.851,0,0,1,1.988.4l-5.133,2.766a4.371,4.371,0,0,0-.627-1.138Zm2.578-.725h2.054a3.658,3.658,0,0,0-1.321.416l-.183.1a3.333,3.333,0,0,0-.55-.515ZM61.7,33.982H28.645a.621.621,0,0,0,0,1.242H60.3l-.414,1.99a1.405,1.405,0,0,1-1.374,1.114H21.184a1.4,1.4,0,0,1-1.379-1.145l-.362-1.96h5.684a.621.621,0,0,0,0-1.242H18.082A1.11,1.11,0,0,1,16.959,32.9a1.09,1.09,0,0,1,1.1-1.092H61.681A1.11,1.11,0,0,1,62.8,32.89a1.09,1.09,0,0,1-1.1,1.092Z" transform="translate(159.056 2840.84)"/>
  </g>
</svg>
