<svg xmlns="http://www.w3.org/2000/svg" width="50.12" height="50.121" viewBox="0 0 50.12 50.121">
  <defs>
    <style>
      .cls-1 {
        fill: #fff;
      }
    </style>
  </defs>
  <g id="Group_119" data-name="Group 119" transform="translate(-1453 -2848)">
    <path id="Path_408" data-name="Path 408" class="cls-1" d="M66.03,31.491,58.512,16.455a.835.835,0,0,0-.747-.462,6.855,6.855,0,0,0-6.5,9.024l1.163,3.49-.83.83a7.406,7.406,0,0,1-1.2-.778l-.028-.016a18.143,18.143,0,0,0-5.625-2.158,5.847,5.847,0,1,0-7.355,0,18.278,18.278,0,0,0-6.858,2.951l-2.484-2.485a1.673,1.673,0,0,0-2.363,0l-2.16,2.16a1.666,1.666,0,0,0-.264,2.017H21.01a4.974,4.974,0,0,0-4.01,2l1.337,1A3.317,3.317,0,0,1,21.01,32.7h5.012a3.341,3.341,0,1,1,0,6.683H21.01a3.345,3.345,0,0,1-3.274-4.01L16.1,35.039a5.014,5.014,0,0,0,2.145,5.178A5.009,5.009,0,0,0,19.9,49.281a5.007,5.007,0,0,0,1.864,8.162,5.009,5.009,0,0,0,3.422,8.67H30.2A5.019,5.019,0,0,0,35.16,61.8,18.38,18.38,0,0,0,56.116,33.859L58.6,31.375a1.671,1.671,0,0,0,0-2.363l-2.16-2.16a1.673,1.673,0,0,0-2.363,0l-.333.333-.9-2.7a5.186,5.186,0,0,1,4.415-6.8l7.187,14.374V55.253a9.2,9.2,0,0,1-9.189,9.189H35.211v1.671H55.258A10.872,10.872,0,0,0,66.118,55.253V31.864a.835.835,0,0,0-.088-.374Zm-23.3-8.815H39.387V21h3.341Zm-2.506,1.671h1.671v1.69c-.555-.025-1.117-.025-1.671,0Zm.835-6.683a4.177,4.177,0,0,1,2.506,7.518v-.835a.835.835,0,0,0,.835-.835V20.17a.835.835,0,0,0-.835-.835H38.552a.835.835,0,0,0-.835.835v3.341a.835.835,0,0,0,.835.835v.835a4.177,4.177,0,0,1,2.506-7.518ZM25.533,31.029l-.835-.835,2.16-2.16,2.332,2.332q-.607.514-1.169,1.08a4.982,4.982,0,0,0-2-.417ZM17.669,44.394a3.345,3.345,0,0,1,3.341-3.341h5.012a3.341,3.341,0,0,1,0,6.683H21.01a3.345,3.345,0,0,1-3.341-3.341Zm5.847,11.695a3.341,3.341,0,0,1,0-6.683h5.012a3.341,3.341,0,1,1,0,6.683ZM30.2,64.442H25.187a3.341,3.341,0,0,1,0-6.683H30.2a3.341,3.341,0,1,1,0,6.683ZM41.058,61.1a16.608,16.608,0,0,1-5.97-1.1,5.031,5.031,0,0,0-3.138-3.6,5,5,0,0,0,.849-6.278l1.443-.833-.835-1.447-1.734,1a5,5,0,0,0-2.035-.988,5,5,0,0,0,1.326-2.631H32.7v-1.67H30.963a5.02,5.02,0,0,0-2.175-3.341,5,5,0,0,0,.658-7.832,16.7,16.7,0,0,1,13.2-4.622A16.969,16.969,0,0,1,57.764,44.394,16.726,16.726,0,0,1,41.058,61.1Zm14.2-33.067,2.16,2.16-2.333,2.333a18.441,18.441,0,0,0-2.159-2.16Z" transform="translate(1437.002 2832.008)"/>
    <path id="Path_409" data-name="Path 409" class="cls-1" d="M172.562,144a15.041,15.041,0,0,0-9.728,3.571l1.08,1.274a13.362,13.362,0,1,1,3.145,22.375l-.689,1.522A15.038,15.038,0,1,0,172.562,144Z" transform="translate(1305.498 2717.366)"/>
    <path id="Path_410" data-name="Path 410" class="cls-1" d="M248,368h1.671v3.341H248Z" transform="translate(1229.225 2516.755)"/>
    <path id="Path_411" data-name="Path 411" class="cls-1" d="M248,176h1.671v3.341H248Z" transform="translate(1229.225 2688.707)"/>
    <path id="Path_412" data-name="Path 412" class="cls-1" d="M0,0H1.671V3.341H0Z" transform="matrix(0.866, -0.5, 0.5, 0.866, 1481.513, 2884.053)"/>
    <path id="Path_413" data-name="Path 413" class="cls-1" d="M0,0H1.671V3.341H0Z" transform="matrix(0.866, -0.5, 0.5, 0.866, 1471.489, 2866.691)"/>
    <path id="Path_414" data-name="Path 414" class="cls-1" d="M0,0H1.671V3.341H0Z" transform="matrix(0.5, -0.866, 0.866, 0.5, 1484.876, 2881.303)"/>
    <path id="Path_415" data-name="Path 415" class="cls-1" d="M0,0H1.671V3.341H0Z" transform="matrix(0.5, -0.866, 0.866, 0.5, 1467.514, 2871.278)"/>
    <path id="Path_416" data-name="Path 416" class="cls-1" d="M336,280h3.341v1.671H336Z" transform="translate(1150.413 2595.567)"/>
    <path id="Path_417" data-name="Path 417" class="cls-1" d="M0,0H3.341V1.671H0Z" transform="matrix(0.5, -0.866, 0.866, 0.5, 1481.513, 2868.751)"/>
    <path id="Path_418" data-name="Path 418" class="cls-1" d="M0,0H3.341V1.671H0Z" transform="matrix(0.5, -0.866, 0.866, 0.5, 1471.489, 2886.113)"/>
    <path id="Path_419" data-name="Path 419" class="cls-1" d="M232,231.66a2.506,2.506,0,1,0,4.967-.469l7.983-4.657-.842-1.443-7.985,4.658A2.5,2.5,0,0,0,232,231.66Zm2.506-.835a.835.835,0,1,1-.835.835A.835.835,0,0,1,234.506,230.824Z" transform="translate(1243.554 2644.742)"/>
  </g>
</svg>
