<svg xmlns="http://www.w3.org/2000/svg" width="250" height="28" viewBox="0 0 250 28">
  <path id="logo-1" d="M32.23,15.245c1.46-3.689-.568-5.2-5.271-5.2H19.012c-1.7,0-2.109-.19-1.7-1.135l.568-1.419c.324-.945.892-1.135,2.6-1.135h10.38a8.212,8.212,0,0,1,4.216.85L36.123,2.1H15.445c-3.974,0-6.974,2.08-8.6,6.148L4.66,14.015c-1.7,4.255-.487,5.58,3.973,5.58h9.083c1.7,0,2.027.189,1.622,1.135l-.729,1.8c-.325.946-.812,1.135-2.514,1.135H5.31a7.126,7.126,0,0,1-3.972-.946L.2,27.917H20.314c5.351,0,7.866-2.27,9.406-6.241l2.514-6.431Zm53.925,1.323a15.081,15.081,0,0,1,4.784.661l2.19-5.58a21.268,21.268,0,0,1-5.271.661H79.911l2.352-5.959h9.082a15.073,15.073,0,0,1,4.784.662l1.054-4.92h-25.3c.162,1.04.162,1.987-.812,4.446L64.5,23.375a15.815,15.815,0,0,1-1.623,3.217,25.827,25.827,0,0,1-1.46-4.067L57.851,9.66l7.38-5.012A22.5,22.5,0,0,1,70.1,2.094H59.88c-.081.283-.163.662-.243.946-.325.85-.892,1.514-2.676,2.743l-10.7,7.756,2.757-7.094A12.019,12.019,0,0,1,51.69,2H38.715c.163,1.04.163,1.986-.81,4.351L31.336,23.188a12.031,12.031,0,0,1-2.675,4.445H41.635c-.163-1.04-.163-1.986.811-4.445l1.54-3.878,3.649-2.649,2.271,10.878H87.694l2.92-4.919a20.686,20.686,0,0,1-5.271.662H75.612l2.757-6.905,7.785.19Zm33.41,4.918a33.662,33.662,0,0,1-7.948.946h-5.19c-1.136,0-1.46-.378-1.055-1.607s4.7-12.107,4.7-12.107A2.254,2.254,0,0,1,112.187,7.3h8.19a11.724,11.724,0,0,1,3.892.757l1.3-5.865h-.081V2H107.969c-4.784,0-8.19,1.986-10.379,7.566L93.454,20.162c-2.189,5.487-.324,7.566,4.46,7.566h18l3.649-6.242Zm31.868,1.8,6.649-16.836a11.784,11.784,0,0,1,2.6-4.352H147.7c.162,1.04.162,1.986-.811,4.352l-2.271,5.865h-8.352l2.351-5.865A12.025,12.025,0,0,1,141.294,2H128.319c.163,1.04.163,1.986-.811,4.352l-6.649,17.025a12.037,12.037,0,0,1-2.675,4.446h12.974c-.163-1.04-.163-1.986.811-4.446l2.675-6.715h8.272l-2.676,6.715a12.037,12.037,0,0,1-2.675,4.446H150.54a8.758,8.758,0,0,1,.892-4.541Zm23.435.19h-9.65l2.676-6.905h7.947a15.521,15.521,0,0,1,4.784.661l2.189-5.58a21.254,21.254,0,0,1-5.27.661h-7.948l2.352-6.052h9.082a15.115,15.115,0,0,1,4.784.66L186.868,2h-25.3c.161,1.04.161,1.986-.812,4.445l-6.649,16.837a12.027,12.027,0,0,1-2.676,4.445h25.706l2.919-4.92a18.858,18.858,0,0,1-5.19.662Zm32.761-15.7-1.216,3.12c-.487,1.23-.973,1.419-2.433,1.419h-6.325l2.351-6.054h6.245c1.54.093,1.864.283,1.378,1.513Zm3.244,8.795c2.432-.19,4.621-.379,6.082-4.163l1.864-4.73c1.7-4.349-.243-5.675-5.351-5.675h-24c.4,1.04.4,1.986-.568,4.445l-6.568,16.837a12.027,12.027,0,0,1-2.676,4.445h12.975c-.163-1.04-.163-1.986.811-4.445l2.6-6.716h3.406l.892,11.16H212.82a11.4,11.4,0,0,1-.892-3.972l-1.053-7.188ZM231.55,7.394c.4-.946.892-1.135,2.6-1.135h10.379a8.221,8.221,0,0,1,4.218.85L250.2,2H229.118c-3.892,0-6.973,2.082-8.595,6.148l-2.19,5.77c-1.7,4.256-.486,5.58,3.974,5.58h9.082c1.7,0,2.027.19,1.622,1.135l-.729,1.8c-.326.946-.812,1.135-2.6,1.135H218.9a7.13,7.13,0,0,1-3.973-.946l-1.055,5.2h20.111c5.352,0,7.866-2.27,9.488-6.337l2.433-6.242c1.46-3.688-.487-5.2-5.271-5.2h-7.947c-1.7,0-2.109-.189-1.7-1.135l.567-1.513Zm14.92,19.768h.568c.4,0,.567-.095.567-.378s-.162-.379-.567-.379h-.568Zm.649-1.23v-.1h-1.135v2.743h.486V27.444h.487c.487,0,.567.095.567.661,0,.283,0,.378.082.472h.4c-.081-.095-.081-.095-.081-.189v-.662a.314.314,0,0,1-.082-.188l-.081-.19v-.095a.714.714,0,0,0,.243-.568c0-.472-.324-.756-.892-.756Zm-2.028,1.42a2.064,2.064,0,0,0,1.865,2.174,1.709,1.709,0,0,0,1.327-.627,2.5,2.5,0,0,0,0-3.1,1.709,1.709,0,0,0-1.327-.627,2.058,2.058,0,0,0-1.865,2.175Zm4.217,0a2.883,2.883,0,0,1-.665,1.874,2.116,2.116,0,0,1-1.607.774,2.542,2.542,0,0,1-2.351-2.649,2.483,2.483,0,0,1,2.352-2.648,2.416,2.416,0,0,1,2.271,2.648Z" transform="translate(-0.202 -2)" fill="#2164b0"/>
</svg>
